<svg width="6" height="12" viewBox="0 0 6 12" fill="none" xmlns="http://www.w3.org/2000/svg">
<path d="M1.89941 2.72854C1.89941 3.00311 1.89941 4.22865 1.89941 4.22865H0.789917V6.06299H1.89941V11.514H4.17853V6.06314H5.70793C5.70793 6.06314 5.85116 5.18359 5.9206 4.22189C5.72153 4.22189 4.18715 4.22189 4.18715 4.22189C4.18715 4.22189 4.18715 3.15472 4.18715 2.96767C4.18715 2.78022 4.43564 2.52806 4.68125 2.52806C4.92639 2.52806 5.44378 2.52806 5.923 2.52806C5.923 2.27831 5.923 1.41538 5.923 0.618408C5.28326 0.618408 4.55545 0.618408 4.23464 0.618408C1.84307 0.618282 1.89941 2.45445 1.89941 2.72854Z" fill="white"/>
</svg>
