<svg width="16" height="11" viewBox="0 0 16 11" fill="none" xmlns="http://www.w3.org/2000/svg">
<path d="M14.2454 4.62011C15.1007 4.55022 15.6809 4.16506 15.9041 3.64245C15.5956 3.83019 14.6379 4.03487 14.109 3.83994C14.0831 3.71684 14.0541 3.59991 14.0257 3.49434C13.6226 2.02841 12.2427 0.847405 10.7969 0.990077C10.9139 0.943291 11.0325 0.899732 11.1508 0.860627C11.31 0.804161 12.2437 0.653668 12.0967 0.327185C11.9727 0.040017 10.8319 0.544209 10.6171 0.610109C10.9007 0.504473 11.3696 0.322766 11.4199 0C10.9854 0.0590258 10.559 0.262477 10.2294 0.558308C10.3484 0.431453 10.4387 0.276857 10.4578 0.110476C9.29913 0.843722 8.62228 2.322 8.07452 3.75598C7.64441 3.34308 7.2632 3.01793 6.92122 2.83738C5.96184 2.32775 4.81473 1.79603 3.01404 1.13387C2.95877 1.72402 3.30868 2.50872 4.31696 3.03055C4.09851 3.00159 3.69903 3.06622 3.37953 3.14201C3.50964 3.81809 3.93458 4.3751 5.08498 4.64445C4.55924 4.67882 4.28754 4.79733 4.0413 5.05276C4.28074 5.52297 4.86504 6.07637 5.91613 5.96277C4.74753 6.4617 5.43964 7.38567 6.39053 7.24787C4.76838 8.90757 2.2109 8.78559 0.74231 7.39742C4.5767 12.573 12.9118 10.4583 14.1539 5.47317C15.0845 5.48102 15.6316 5.15384 15.9708 4.79312C15.4347 4.88326 14.6575 4.79011 14.2454 4.62011Z" fill="white"/>
</svg>
