<svg width="14" height="8" viewBox="0 0 14 8" fill="none" xmlns="http://www.w3.org/2000/svg">
<path d="M13.7586 7.1355C13.7233 7.0724 13.5051 6.56585 12.4551 5.52472C11.3559 4.43452 11.5036 4.61154 12.8275 2.72647C13.6339 1.57842 13.9563 0.877323 13.8554 0.577604C13.7594 0.291906 13.1663 0.367274 13.1663 0.367274L11.1943 0.379543C11.1943 0.379543 11.0483 0.358511 10.9392 0.427744C10.8334 0.496101 10.7653 0.653848 10.7653 0.653848C10.7653 0.653848 10.4528 1.54249 10.0361 2.29792C9.15755 3.89204 8.80565 3.97617 8.6621 3.87714C8.32824 3.64666 8.41191 2.94994 8.41191 2.45567C8.41191 0.910625 8.63092 0.266491 7.98453 0.0999807C7.76962 0.0447692 7.61212 0.00796159 7.06334 0.00182698C6.35953 -0.00606037 5.76318 0.00445609 5.42604 0.180607C5.20128 0.298041 5.0282 0.560076 5.13402 0.574975C5.26444 0.593378 5.55975 0.659983 5.71642 0.887839C5.91904 1.18142 5.91165 1.84221 5.91165 1.84221C5.91165 1.84221 6.02814 3.66068 5.64014 3.88678C5.37354 4.0419 5.00851 3.72553 4.22513 2.27864C3.82401 1.53811 3.5205 0.7187 3.5205 0.7187C3.5205 0.7187 3.46226 0.566211 3.35808 0.484708C3.23176 0.385678 3.05458 0.354129 3.05458 0.354129L1.17939 0.366398C1.17939 0.366398 0.898026 0.375162 0.794669 0.505741C0.702797 0.622299 0.787287 0.862424 0.787287 0.862424C0.787287 0.862424 2.25561 4.53179 3.91752 6.38182C5.44245 8.0776 7.17326 7.9663 7.17326 7.9663H7.95746C7.95746 7.9663 8.19453 7.93825 8.31511 7.79891C8.42667 7.67096 8.42257 7.43083 8.42257 7.43083C8.42257 7.43083 8.40698 6.30645 8.89588 6.14081C9.37739 5.97781 9.99589 7.22752 10.6513 7.70864C11.1468 8.07234 11.5233 7.99259 11.5233 7.99259L13.2762 7.9663C13.2762 7.9663 14.1933 7.90583 13.7586 7.1355Z" fill="white"/>
</svg>
